HIERARCHY
ROOT Hips
{
  OFFSET -211.248 88.4339 -188.372
  CHANNELS 6 Xposition Yposition Zposition Zrotation Xrotation Yrotation
  JOINT ToSpine
  {
    OFFSET -0.0105055 1.38907 -7.13956
    CHANNELS 3 Zrotation Xrotation Yrotation
    JOINT Spine
    {
      OFFSET 0.0105055 10 1
      CHANNELS 3 Zrotation Xrotation Yrotation
      JOINT Spine1
      {
        OFFSET 0 12 1.60637
        CHANNELS 3 Zrotation Xrotation Yrotation
        JOINT Neck
        {
          OFFSET 0 27 2.26658
          CHANNELS 3 Zrotation Xrotation Yrotation
          JOINT Head
          {
            OFFSET 0 9 2.12705
            CHANNELS 3 Zrotation Xrotation Yrotation
            End Site
            {
              OFFSET 0 11 2
            }
          }
        }
        JOINT LeftShoulder
        {
          OFFSET 8 19.6109 2.86452
          CHANNELS 3 Zrotation Xrotation Yrotation
          JOINT LeftArm
          {
            OFFSET 12 1 0.681055
            CHANNELS 3 Zrotation Xrotation Yrotation
            JOINT LeftForeArm
            {
              OFFSET 19 0 -1.52608
              CHANNELS 3 Zrotation Xrotation Yrotation
              JOINT LeftHand
              {
                OFFSET 23 0 0
                CHANNELS 3 Zrotation Xrotation Yrotation
                End Site
                {
                  OFFSET 10 0 0
                }
              }
            }
          }
        }
        JOINT RightShoulder
        {
          OFFSET -8 19.6109 2.86452
          CHANNELS 3 Zrotation Xrotation Yrotation
          JOINT RightArm
          {
            OFFSET -12 1 0.681055
            CHANNELS 3 Zrotation Xrotation Yrotation
            JOINT RightForeArm
            {
              OFFSET -19 0 -1.52608
              CHANNELS 3 Zrotation Xrotation Yrotation
              JOINT RightHand
              {
                OFFSET -23 0 0
                CHANNELS 3 Zrotation Xrotation Yrotation
                End Site
                {
                  OFFSET -10 0 0
                }
              }
            }
          }
        }
      }
    }
  }
  JOINT LeftUpLeg
  {
    OFFSET 9 -7.17245 0
    CHANNELS 3 Zrotation Xrotation Yrotation
    JOINT LeftLeg
    {
      OFFSET 0 -44.1113 0
      CHANNELS 3 Zrotation Xrotation Yrotation
      JOINT LeftFoot
      {
        OFFSET 0 -36.1829 0
        CHANNELS 3 Zrotation Xrotation Yrotation
        JOINT LeftToeBase
        {
          OFFSET 0 -4.84184 13
          CHANNELS 3 Zrotation Xrotation Yrotation
          End Site
          {
            OFFSET 0 1 6
          }
        }
      }
    }
  }
  JOINT RightUpLeg
  {
    OFFSET -9 -7.17245 0
    CHANNELS 3 Zrotation Xrotation Yrotation
    JOINT RightLeg
    {
      OFFSET 0 -44.0551 0
      CHANNELS 3 Zrotation Xrotation Yrotation
      JOINT RightFoot
      {
        OFFSET 0 -36.1469 0
        CHANNELS 3 Zrotation Xrotation Yrotation
        JOINT RightToeBase
        {
          OFFSET 0 -4.92256 13
          CHANNELS 3 Zrotation Xrotation Yrotation
          End Site
          {
            OFFSET 0 1 6
          }
        }
      }
    }
  }
}
MOTION
Frames:	7
Frame Time:	0.0333333
-211.248 88.4339 -188.372 -7.77494 4.12373 34.9333 0 0 0 10.7409 22.4363 6.63349 -11.9075 -9.51131 10.0149 -5.09136 -18.639 2.3867 -3.20915 -1.49171 2.23267 -13.8074 1.42765 -3.36266 -55.3212 23.5716 51.0623 21.8719 -10.7387 -114.899 -25.9058 3.35338 -14.5059 11.491 2.96725 12.2936 43.4344 -34.153 44.7534 -14.9912 -7.47961 115.925 0.393659 0.0171375 4.98545 17.8794 -56.614 23.7438 -180 48.7313 177.234 27.8168 -16.9672 4.23066 1.62246 -20.7316 -3.52103 -2.86245 -3.37843 -12.9675 -2.8379e-007 39.6089 8.12572 -31.9834 -25.5352 -7.43124 6.29706 -28.5037 -11.3739 
-199.249 90.7326 -177.09 -5.1098 6.2004 36.5764 0 0 0 11.0382 21.1235 11.5319 -20.1883 -8.31545 15.8397 -4.60863 -20.8373 -4.94411 -0.973111 3.50986 -4.84102 -3.70801 0.981381 -4.85723 -53.9841 26.7329 58.4945 24.5242 -13.4134 -116.951 -19.7802 1.8821 -10.7641 -1.78777 0.858868 8.93293 45.3739 -44.8349 31.8344 -13.2694 -9.14868 123.988 -3.29042 -0.164611 5.72635 15.003 -65.1003 18.5071 -180 68.7452 -175.263 25.25 -18.8162 4.25088 1.45131 -18.1376 -2.69425 -5.44424 14.1923 -9.07716 0.168805 18.2243 5.69188 -22.7623 -4.68337 -0.943232 8.96311 -38.0674 -7.81011 
-186.17 93.1121 -164.838 -4.32938 10.4969 40.851 0 0 0 11.5408 13.3134 14.4469 -27.9057 -1.7731 20.2089 -2.74261 -30.8413 -12.1887 -0.27833 13.827 -10.703 7.12967 0.206648 -5.83944 -53.544 29.7274 58.4818 18.4716 -10.997 -119.729 -17.4097 1.95633 -12.7261 -10.77 -0.110019 7.79831 35.9338 -51.2532 9.69022 -10.2592 -8.38995 128.874 -2.23906 -0.123101 6.293 3.25555 -68.1798 6.01093 3.48777e-007 86.2857 -0.646367 24.1902 -19.9703 4.32128 1.32236 -15.5978 -2.59428 -5.42626 24.763 -9.44592 -2.32221 5.33664 4.71462 -20.6599 13.4879 2.46948 3.25162 -11.1706 -10.2142 
-172.927 93.3998 -153.303 -5.00493 14.0036 45.6973 0 0 0 11.1571 6.1456 16.1285 -31.0789 2.22275 21.669 -0.0607664 -32.4109 -15.761 -1.2631 13.3456 -13.429 9.57662 0.00790541 -7.57005 -51.4964 33.0149 59.9431 17.4164 -11.5938 -122.646 -16.4137 1.94756 -13.443 -11.5847 -0.190476 7.78869 23.2211 -41.1324 -0.871085 -10.164 -7.55393 126.251 -3.68818 -0.223459 6.932 -7.24888 -67.1853 -3.77971 -3.43016e-008 61.3607 -9.19345 20.7589 -17.9999 3.32339 1.1322 -11.5712 -2.57407 -4.20866 29.8423 -12.0815 -0.372974 9.22382 -0.695249 -17.477 6.02144 0.926386 3.55947 -13.0064 -7.90257 
-160.34 93.0772 -142.37 -5.61361 11.295 48.657 0 0 0 11.6016 5.33937 17.0389 -28.883 2.95431 21.1707 3.83939 -28.38 -17.2611 -3.30381 6.50675 -14.4933 4.88538 0.502877 -8.519 -49.4088 38.2815 57.6693 18.3399 -12.3704 -122.873 -15.3374 1.88247 -13.913 -7.56873 0.20472 7.68701 23.1614 -22.6439 -3.03428 -12.8065 -7.95794 121.344 -1.09496 -0.0630699 6.59301 -3.61145 -59.6152 0.935829 1.10775e-006 39.9553 -15.571 18.1107 -10.4538 1.67059 1.07029 -12.4784 -1.79115 2.45903 33.9583 -14.2092 1.10387 21.4057 3.3289 -25.4322 6.5337 1.47588 4.24315 -16.4249 -8.14733 
-148.983 92.945 -132.291 -4.23898 5.81683 50.0494 0 0 0 11.2368 7.72856 15.7573 -25.2627 4.2853 19.7676 9.1076 -29.7964 -16.2 -4.12881 6.48464 -13.1593 -4.02916 1.36416 -7.82642 -43.2016 39.928 48.2122 19.6935 -12.0936 -120.342 -13.9137 1.67842 -13.6907 -0.2791 1.1642 10.6172 30.3453 -8.92426 -6.50121 -16.9468 -6.47743 110.316 1.38206 0.0913198 7.56031 1.95062 -48.7837 10.5321 5.41741e-007 28.5244 -19.4161 14.3157 -6.66612 0.838075 0.95545 -12.1199 -1.08648 9.13472 34.3482 -15.2401 -7.11875e-007 45.0977 9.20951 -22.7034 -2.35324 -0.472495 3.85402 -14.3787 -3.69086 
-137.33 92.563 -122.176 -1.82027 3.24023 53.3814 0 0 0 8.55047 9.73856 12.3232 -21.5202 3.4147 16.4121 12.3622 -24.4487 -14.6315 -2.71881 2.33223 -11.8172 -15.3488 2.44823 -7.50425 -30.9583 39.3263 30.1276 18.7077 -9.35827 -115.65 -14.0525 1.29814 -10.5035 6.07898 2.56718 14.9148 41.3945 -2.29899 -12.6258 -16.866 -1.05983 93.4912 -0.047816 -0.00279158 6.68246 1.07048 -39.4246 12.463 -6.41781e-008 28.6763 -17.3887 14.7218 -6.75729 0.873929 1.05156 -11.6233 -1.98154 12.596 29.9594 -19.9073 -2.55056e-007 71.2613 2.69027 -26.4064 -3.37958 -0.793089 4.40481 -16.6688 -3.84782 
